<?xml version="1.0" encoding="UTF-8"?>
<svg width="1000" height="1000" viewBox="0 0 680 680" xmlns="http://www.w3.org/2000/svg">
  
  <circle cx="359.9" cy="242.0" r="10" fill="#1a1a1a"/>
  <circle cx="429.0" cy="294.4" r="10" fill="#1a1a1a"/>
  <circle cx="431.1" cy="381.2" r="10" fill="#1a1a1a"/>
  <circle cx="364.6" cy="436.9" r="10" fill="#1a1a1a"/>
  <circle cx="279.6" cy="419.7" r="10" fill="#1a1a1a"/>
  <circle cx="240.0" cy="342.4" r="10" fill="#1a1a1a"/>
  <circle cx="275.8" cy="263.4" r="10" fill="#1a1a1a"/>

  
  <circle cx="383.4" cy="544.0" r="10" fill="#1a1a1a"/>
  <circle cx="309.2" cy="540.6" r="10" fill="#1a1a1a"/>
  <circle cx="240.7" cy="515.8" r="10" fill="#1a1a1a"/>
  <circle cx="179.6" cy="473.8" r="10" fill="#1a1a1a"/>
  <circle cx="150.6" cy="405.5" r="10" fill="#1a1a1a"/>
  <circle cx="135.4" cy="334.2" r="10" fill="#1a1a1a"/>
  <circle cx="334.1" cy="134.4" r="10" fill="#1a1a1a"/>
  <circle cx="407.5" cy="145.0" r="10" fill="#1a1a1a"/>
  <circle cx="468.5" cy="185.8" r="10" fill="#1a1a1a"/>
  <circle cx="519.9" cy="238.4" r="10" fill="#1a1a1a"/>
  <circle cx="542.6" cy="308.9" r="10" fill="#1a1a1a"/>

  
  <circle cx="195.0" cy="195.0" r="10" fill="#1a1a1a"/>
  <circle cx="199.5" cy="161.5" r="10" fill="#1a1a1a"/>
  <circle cx="237.8" cy="208.3" r="10" fill="#1a1a1a"/>
  <circle cx="181.6" cy="229.4" r="10" fill="#1a1a1a"/>
  <circle cx="162.6" cy="162.1" r="10" fill="#1a1a1a"/>
  <circle cx="206.2" cy="239.6" r="10" fill="#1a1a1a"/>
  <circle cx="166.0" cy="204.8" r="10" fill="#1a1a1a"/>
  <circle cx="225.9" cy="177.7" r="10" fill="#1a1a1a"/>
  <circle cx="148.4" cy="186.0" r="10" fill="#1a1a1a"/>
  <circle cx="212.6" cy="213.9" r="10" fill="#1a1a1a"/>

  
  <circle cx="485.0" cy="485.0" r="10" fill="#1a1a1a"/>
  <circle cx="497.5" cy="518.5" r="10" fill="#1a1a1a"/>
  <circle cx="458.6" cy="496.5" r="10" fill="#1a1a1a"/>
  <circle cx="492.3" cy="452.5" r="10" fill="#1a1a1a"/>
  <circle cx="459.6" cy="471.0" r="10" fill="#1a1a1a"/>
  <circle cx="516.6" cy="480.7" r="10" fill="#1a1a1a"/>
  <circle cx="470.6" cy="522.5" r="10" fill="#1a1a1a"/>
  <circle cx="520.9" cy="506.0" r="10" fill="#1a1a1a"/>
</svg>
